<mxfile host="app.diagrams.net" modified="2023-05-25T11:39:17.545Z" agent="Mozilla/5.0 (Windows NT 10.0; Win64; x64) AppleWebKit/537.36 (KHTML, like Gecko) Chrome/110.0.0.0 YaBrowser/23.3.4.603 Yowser/2.5 Safari/537.36" etag="4L1EVBTFDcpD9qsFw8j0" version="21.2.9" type="device">
  <diagram name="Страница 1" id="EpxSsozaQtJG8UNOqONP">
    <mxGraphModel dx="1434" dy="783" grid="1" gridSize="10" guides="1" tooltips="1" connect="1" arrows="1" fold="1" page="1" pageScale="1" pageWidth="827" pageHeight="1169" math="0" shadow="0">
      <root>
        <mxCell id="0" />
        <mxCell id="1" parent="0" />
        <mxCell id="Bf2A8Br0c424RqoWOQtK-3" value="" style="ellipse;whiteSpace=wrap;html=1;aspect=fixed;" parent="1" vertex="1">
          <mxGeometry x="70" y="110" width="80" height="80" as="geometry" />
        </mxCell>
        <mxCell id="Bf2A8Br0c424RqoWOQtK-4" value="" style="endArrow=classic;html=1;rounded=0;exitX=1;exitY=0.5;exitDx=0;exitDy=0;" parent="1" source="Bf2A8Br0c424RqoWOQtK-3" edge="1">
          <mxGeometry width="50" height="50" relative="1" as="geometry">
            <mxPoint x="160" y="150" as="sourcePoint" />
            <mxPoint x="240" y="150" as="targetPoint" />
          </mxGeometry>
        </mxCell>
        <mxCell id="Bf2A8Br0c424RqoWOQtK-5" value="" style="rhombus;whiteSpace=wrap;html=1;" parent="1" vertex="1">
          <mxGeometry x="240" y="110" width="120" height="80" as="geometry" />
        </mxCell>
        <mxCell id="Bf2A8Br0c424RqoWOQtK-6" value="" style="endArrow=classic;html=1;rounded=0;exitX=1;exitY=0.5;exitDx=0;exitDy=0;" parent="1" source="Bf2A8Br0c424RqoWOQtK-5" target="Bf2A8Br0c424RqoWOQtK-7" edge="1">
          <mxGeometry width="50" height="50" relative="1" as="geometry">
            <mxPoint x="480" y="200" as="sourcePoint" />
            <mxPoint x="450" y="150" as="targetPoint" />
          </mxGeometry>
        </mxCell>
        <mxCell id="Bf2A8Br0c424RqoWOQtK-7" value="" style="rounded=1;whiteSpace=wrap;html=1;" parent="1" vertex="1">
          <mxGeometry x="440" y="120" width="120" height="60" as="geometry" />
        </mxCell>
        <mxCell id="Bf2A8Br0c424RqoWOQtK-8" value="обучение" style="text;html=1;strokeColor=none;fillColor=none;align=center;verticalAlign=middle;whiteSpace=wrap;rounded=0;" parent="1" vertex="1">
          <mxGeometry x="370" y="110" width="60" height="30" as="geometry" />
        </mxCell>
        <mxCell id="Bf2A8Br0c424RqoWOQtK-10" value="" style="endArrow=classic;html=1;rounded=0;exitX=1;exitY=0.5;exitDx=0;exitDy=0;" parent="1" source="Bf2A8Br0c424RqoWOQtK-7" edge="1">
          <mxGeometry width="50" height="50" relative="1" as="geometry">
            <mxPoint x="480" y="200" as="sourcePoint" />
            <mxPoint x="640" y="150" as="targetPoint" />
          </mxGeometry>
        </mxCell>
        <mxCell id="Bf2A8Br0c424RqoWOQtK-11" value="" style="rounded=1;whiteSpace=wrap;html=1;" parent="1" vertex="1">
          <mxGeometry x="640" y="120" width="120" height="60" as="geometry" />
        </mxCell>
        <mxCell id="Bf2A8Br0c424RqoWOQtK-12" value="" style="endArrow=classic;html=1;rounded=0;exitX=1;exitY=0.5;exitDx=0;exitDy=0;entryX=0;entryY=0.5;entryDx=0;entryDy=0;" parent="1" source="Bf2A8Br0c424RqoWOQtK-11" target="Bf2A8Br0c424RqoWOQtK-24" edge="1">
          <mxGeometry width="50" height="50" relative="1" as="geometry">
            <mxPoint x="480" y="200" as="sourcePoint" />
            <mxPoint x="800" y="150" as="targetPoint" />
          </mxGeometry>
        </mxCell>
        <mxCell id="Bf2A8Br0c424RqoWOQtK-16" value="" style="endArrow=none;html=1;rounded=0;entryX=0.5;entryY=1;entryDx=0;entryDy=0;" parent="1" target="Bf2A8Br0c424RqoWOQtK-5" edge="1">
          <mxGeometry width="50" height="50" relative="1" as="geometry">
            <mxPoint x="300" y="280" as="sourcePoint" />
            <mxPoint x="430" y="170" as="targetPoint" />
          </mxGeometry>
        </mxCell>
        <mxCell id="Bf2A8Br0c424RqoWOQtK-19" value="" style="endArrow=classic;html=1;rounded=0;" parent="1" target="Bf2A8Br0c424RqoWOQtK-20" edge="1">
          <mxGeometry width="50" height="50" relative="1" as="geometry">
            <mxPoint x="300" y="280" as="sourcePoint" />
            <mxPoint x="440" y="280" as="targetPoint" />
          </mxGeometry>
        </mxCell>
        <mxCell id="Bf2A8Br0c424RqoWOQtK-20" value="" style="rounded=1;whiteSpace=wrap;html=1;" parent="1" vertex="1">
          <mxGeometry x="440" y="250" width="120" height="60" as="geometry" />
        </mxCell>
        <mxCell id="Bf2A8Br0c424RqoWOQtK-21" value="предсказание" style="text;html=1;strokeColor=none;fillColor=none;align=center;verticalAlign=middle;whiteSpace=wrap;rounded=0;" parent="1" vertex="1">
          <mxGeometry x="330" y="230" width="60" height="30" as="geometry" />
        </mxCell>
        <mxCell id="Bf2A8Br0c424RqoWOQtK-22" value="загрузка данных" style="text;html=1;strokeColor=none;fillColor=none;align=center;verticalAlign=middle;whiteSpace=wrap;rounded=0;" parent="1" vertex="1">
          <mxGeometry x="470" y="135" width="60" height="30" as="geometry" />
        </mxCell>
        <mxCell id="Bf2A8Br0c424RqoWOQtK-23" value="&lt;span style=&quot;color: rgb(0, 0, 0); font-family: Helvetica; font-size: 12px; font-style: normal; font-variant-ligatures: normal; font-variant-caps: normal; font-weight: 400; letter-spacing: normal; orphans: 2; text-indent: 0px; text-transform: none; widows: 2; word-spacing: 0px; -webkit-text-stroke-width: 0px; background-color: rgb(251, 251, 251); text-decoration-thickness: initial; text-decoration-style: initial; text-decoration-color: initial; float: none; display: inline !important;&quot;&gt;обработка &lt;br&gt;данных&lt;/span&gt;" style="text;whiteSpace=wrap;html=1;align=center;" parent="1" vertex="1">
          <mxGeometry x="650" y="130" width="100" height="40" as="geometry" />
        </mxCell>
        <mxCell id="Bf2A8Br0c424RqoWOQtK-24" value="" style="rounded=1;whiteSpace=wrap;html=1;" parent="1" vertex="1">
          <mxGeometry x="810" y="120" width="120" height="60" as="geometry" />
        </mxCell>
        <mxCell id="Bf2A8Br0c424RqoWOQtK-25" value="Сохранение данных в артефакт" style="text;whiteSpace=wrap;html=1;align=center;" parent="1" vertex="1">
          <mxGeometry x="820" y="130" width="100" height="40" as="geometry" />
        </mxCell>
        <mxCell id="Bf2A8Br0c424RqoWOQtK-26" value="" style="endArrow=classic;html=1;rounded=0;exitX=1;exitY=0.5;exitDx=0;exitDy=0;" parent="1" source="Bf2A8Br0c424RqoWOQtK-24" edge="1">
          <mxGeometry width="50" height="50" relative="1" as="geometry">
            <mxPoint x="810" y="220" as="sourcePoint" />
            <mxPoint x="1000" y="150" as="targetPoint" />
          </mxGeometry>
        </mxCell>
        <mxCell id="Bf2A8Br0c424RqoWOQtK-27" value="" style="rhombus;whiteSpace=wrap;html=1;" parent="1" vertex="1">
          <mxGeometry x="970" y="110" width="140" height="80" as="geometry" />
        </mxCell>
        <mxCell id="Bf2A8Br0c424RqoWOQtK-28" value="" style="endArrow=none;html=1;rounded=0;exitX=0.5;exitY=0;exitDx=0;exitDy=0;" parent="1" source="Bf2A8Br0c424RqoWOQtK-27" edge="1">
          <mxGeometry width="50" height="50" relative="1" as="geometry">
            <mxPoint x="810" y="160" as="sourcePoint" />
            <mxPoint x="1040" y="40" as="targetPoint" />
          </mxGeometry>
        </mxCell>
        <mxCell id="Bf2A8Br0c424RqoWOQtK-29" value="" style="endArrow=classic;html=1;rounded=0;" parent="1" edge="1">
          <mxGeometry width="50" height="50" relative="1" as="geometry">
            <mxPoint x="1040" y="40" as="sourcePoint" />
            <mxPoint x="1160" y="40" as="targetPoint" />
          </mxGeometry>
        </mxCell>
        <mxCell id="Bf2A8Br0c424RqoWOQtK-30" value="" style="rounded=1;whiteSpace=wrap;html=1;" parent="1" vertex="1">
          <mxGeometry x="1160" y="10" width="120" height="60" as="geometry" />
        </mxCell>
        <mxCell id="Bf2A8Br0c424RqoWOQtK-31" value="Дообучение модели" style="text;whiteSpace=wrap;html=1;align=center;" parent="1" vertex="1">
          <mxGeometry x="1170" y="20" width="100" height="40" as="geometry" />
        </mxCell>
        <mxCell id="Bf2A8Br0c424RqoWOQtK-32" value="" style="endArrow=classic;html=1;rounded=0;exitX=1;exitY=0.5;exitDx=0;exitDy=0;" parent="1" source="Bf2A8Br0c424RqoWOQtK-27" target="Bf2A8Br0c424RqoWOQtK-33" edge="1">
          <mxGeometry width="50" height="50" relative="1" as="geometry">
            <mxPoint x="1110" y="200" as="sourcePoint" />
            <mxPoint x="1160" y="150" as="targetPoint" />
          </mxGeometry>
        </mxCell>
        <mxCell id="Bf2A8Br0c424RqoWOQtK-33" value="" style="rounded=1;whiteSpace=wrap;html=1;" parent="1" vertex="1">
          <mxGeometry x="1160" y="120" width="120" height="60" as="geometry" />
        </mxCell>
        <mxCell id="Bf2A8Br0c424RqoWOQtK-34" value="Обучение&amp;nbsp;&lt;br&gt;модели" style="text;whiteSpace=wrap;html=1;align=center;" parent="1" vertex="1">
          <mxGeometry x="1170" y="130" width="100" height="40" as="geometry" />
        </mxCell>
        <mxCell id="Bf2A8Br0c424RqoWOQtK-35" value="" style="endArrow=classic;html=1;rounded=0;exitX=1;exitY=0.5;exitDx=0;exitDy=0;entryX=0;entryY=0.5;entryDx=0;entryDy=0;" parent="1" source="Bf2A8Br0c424RqoWOQtK-33" target="Bf2A8Br0c424RqoWOQtK-40" edge="1">
          <mxGeometry width="50" height="50" relative="1" as="geometry">
            <mxPoint x="1110" y="200" as="sourcePoint" />
            <mxPoint x="1320" y="150" as="targetPoint" />
          </mxGeometry>
        </mxCell>
        <mxCell id="Bf2A8Br0c424RqoWOQtK-36" value="" style="rounded=1;whiteSpace=wrap;html=1;" parent="1" vertex="1">
          <mxGeometry x="1600" y="120" width="120" height="60" as="geometry" />
        </mxCell>
        <mxCell id="Bf2A8Br0c424RqoWOQtK-37" value="" style="endArrow=none;html=1;rounded=0;exitX=1;exitY=0.5;exitDx=0;exitDy=0;" parent="1" source="Bf2A8Br0c424RqoWOQtK-30" edge="1">
          <mxGeometry width="50" height="50" relative="1" as="geometry">
            <mxPoint x="850" y="320" as="sourcePoint" />
            <mxPoint x="1440" y="40" as="targetPoint" />
          </mxGeometry>
        </mxCell>
        <mxCell id="Bf2A8Br0c424RqoWOQtK-38" value="" style="endArrow=classic;html=1;rounded=0;entryX=0.5;entryY=0;entryDx=0;entryDy=0;" parent="1" target="Bf2A8Br0c424RqoWOQtK-40" edge="1">
          <mxGeometry width="50" height="50" relative="1" as="geometry">
            <mxPoint x="1440" y="40" as="sourcePoint" />
            <mxPoint x="1360" y="150" as="targetPoint" />
          </mxGeometry>
        </mxCell>
        <mxCell id="Bf2A8Br0c424RqoWOQtK-39" value="Анализ полученной метрики" style="text;html=1;strokeColor=none;fillColor=none;align=center;verticalAlign=middle;whiteSpace=wrap;rounded=0;" parent="1" vertex="1">
          <mxGeometry x="1630" y="135" width="60" height="30" as="geometry" />
        </mxCell>
        <mxCell id="Bf2A8Br0c424RqoWOQtK-40" value="" style="rhombus;whiteSpace=wrap;html=1;" parent="1" vertex="1">
          <mxGeometry x="1360" y="110" width="160" height="80" as="geometry" />
        </mxCell>
        <mxCell id="Bf2A8Br0c424RqoWOQtK-41" value="" style="endArrow=classic;html=1;rounded=0;exitX=1;exitY=0.5;exitDx=0;exitDy=0;entryX=0;entryY=0.5;entryDx=0;entryDy=0;" parent="1" source="Bf2A8Br0c424RqoWOQtK-40" target="Bf2A8Br0c424RqoWOQtK-36" edge="1">
          <mxGeometry width="50" height="50" relative="1" as="geometry">
            <mxPoint x="1020" y="120" as="sourcePoint" />
            <mxPoint x="1070" y="70" as="targetPoint" />
          </mxGeometry>
        </mxCell>
        <mxCell id="Bf2A8Br0c424RqoWOQtK-42" value="" style="endArrow=classic;html=1;rounded=0;exitX=1;exitY=0.5;exitDx=0;exitDy=0;entryX=0;entryY=0.5;entryDx=0;entryDy=0;" parent="1" source="Bf2A8Br0c424RqoWOQtK-36" target="Bf2A8Br0c424RqoWOQtK-43" edge="1">
          <mxGeometry width="50" height="50" relative="1" as="geometry">
            <mxPoint x="1670" y="80" as="sourcePoint" />
            <mxPoint x="1800" y="150" as="targetPoint" />
          </mxGeometry>
        </mxCell>
        <mxCell id="Bf2A8Br0c424RqoWOQtK-43" value="" style="rounded=1;whiteSpace=wrap;html=1;" parent="1" vertex="1">
          <mxGeometry x="1760" y="120" width="120" height="60" as="geometry" />
        </mxCell>
        <mxCell id="Bf2A8Br0c424RqoWOQtK-44" value="Выбор модели" style="text;html=1;strokeColor=none;fillColor=none;align=center;verticalAlign=middle;whiteSpace=wrap;rounded=0;" parent="1" vertex="1">
          <mxGeometry x="1790" y="135" width="60" height="30" as="geometry" />
        </mxCell>
        <mxCell id="Bf2A8Br0c424RqoWOQtK-45" value="" style="endArrow=classic;html=1;rounded=0;exitX=1;exitY=0.5;exitDx=0;exitDy=0;" parent="1" source="Bf2A8Br0c424RqoWOQtK-43" target="Bf2A8Br0c424RqoWOQtK-46" edge="1">
          <mxGeometry width="50" height="50" relative="1" as="geometry">
            <mxPoint x="1810" y="280" as="sourcePoint" />
            <mxPoint x="1960" y="150" as="targetPoint" />
          </mxGeometry>
        </mxCell>
        <mxCell id="Bf2A8Br0c424RqoWOQtK-46" value="" style="rhombus;whiteSpace=wrap;html=1;" parent="1" vertex="1">
          <mxGeometry x="1920" y="110" width="160" height="80" as="geometry" />
        </mxCell>
        <mxCell id="Bf2A8Br0c424RqoWOQtK-47" value="" style="endArrow=classic;html=1;rounded=0;" parent="1" source="Bf2A8Br0c424RqoWOQtK-46" edge="1">
          <mxGeometry width="50" height="50" relative="1" as="geometry">
            <mxPoint x="1810" y="280" as="sourcePoint" />
            <mxPoint x="2130" y="150" as="targetPoint" />
          </mxGeometry>
        </mxCell>
        <mxCell id="Bf2A8Br0c424RqoWOQtK-49" value="" style="endArrow=classic;html=1;rounded=0;exitX=1;exitY=0.5;exitDx=0;exitDy=0;" parent="1" source="Bf2A8Br0c424RqoWOQtK-20" edge="1">
          <mxGeometry width="50" height="50" relative="1" as="geometry">
            <mxPoint x="680" y="490" as="sourcePoint" />
            <mxPoint x="680" y="280" as="targetPoint" />
          </mxGeometry>
        </mxCell>
        <mxCell id="Bf2A8Br0c424RqoWOQtK-50" value="" style="rounded=1;whiteSpace=wrap;html=1;" parent="1" vertex="1">
          <mxGeometry x="680" y="250" width="120" height="60" as="geometry" />
        </mxCell>
        <mxCell id="Bf2A8Br0c424RqoWOQtK-51" value="" style="endArrow=classic;html=1;rounded=0;exitX=1;exitY=0.5;exitDx=0;exitDy=0;" parent="1" edge="1">
          <mxGeometry width="50" height="50" relative="1" as="geometry">
            <mxPoint x="800" y="279.57" as="sourcePoint" />
            <mxPoint x="920" y="279.57" as="targetPoint" />
          </mxGeometry>
        </mxCell>
        <mxCell id="Bf2A8Br0c424RqoWOQtK-52" value="" style="rounded=1;whiteSpace=wrap;html=1;" parent="1" vertex="1">
          <mxGeometry x="920" y="250" width="120" height="60" as="geometry" />
        </mxCell>
        <mxCell id="Bf2A8Br0c424RqoWOQtK-53" value="" style="endArrow=none;html=1;rounded=0;exitX=1;exitY=0.5;exitDx=0;exitDy=0;" parent="1" source="Bf2A8Br0c424RqoWOQtK-52" edge="1">
          <mxGeometry width="50" height="50" relative="1" as="geometry">
            <mxPoint x="1520" y="220" as="sourcePoint" />
            <mxPoint x="2000" y="280" as="targetPoint" />
          </mxGeometry>
        </mxCell>
        <mxCell id="Bf2A8Br0c424RqoWOQtK-54" value="" style="endArrow=classic;html=1;rounded=0;entryX=0.5;entryY=1;entryDx=0;entryDy=0;" parent="1" target="Bf2A8Br0c424RqoWOQtK-46" edge="1">
          <mxGeometry width="50" height="50" relative="1" as="geometry">
            <mxPoint x="2000" y="280" as="sourcePoint" />
            <mxPoint x="1570" y="170" as="targetPoint" />
          </mxGeometry>
        </mxCell>
        <mxCell id="Bf2A8Br0c424RqoWOQtK-55" value="" style="ellipse;whiteSpace=wrap;html=1;aspect=fixed;" parent="1" vertex="1">
          <mxGeometry x="2130" y="110" width="80" height="80" as="geometry" />
        </mxCell>
        <mxCell id="Bf2A8Br0c424RqoWOQtK-56" value="Предобработка&amp;nbsp;&lt;br&gt;запроса" style="text;html=1;strokeColor=none;fillColor=none;align=center;verticalAlign=middle;whiteSpace=wrap;rounded=0;" parent="1" vertex="1">
          <mxGeometry x="470" y="265" width="60" height="30" as="geometry" />
        </mxCell>
        <mxCell id="Bf2A8Br0c424RqoWOQtK-57" value="Выполнить&amp;nbsp;&lt;br&gt;оценку" style="text;html=1;strokeColor=none;fillColor=none;align=center;verticalAlign=middle;whiteSpace=wrap;rounded=0;" parent="1" vertex="1">
          <mxGeometry x="710" y="265" width="60" height="30" as="geometry" />
        </mxCell>
        <mxCell id="Bf2A8Br0c424RqoWOQtK-58" value="Постобработка&amp;nbsp;&lt;br&gt;запроса" style="text;html=1;strokeColor=none;fillColor=none;align=center;verticalAlign=middle;whiteSpace=wrap;rounded=0;" parent="1" vertex="1">
          <mxGeometry x="950" y="265" width="60" height="30" as="geometry" />
        </mxCell>
      </root>
    </mxGraphModel>
  </diagram>
</mxfile>
